<svg width="50" height="50" viewBox="0 0 50 50" fill="none" xmlns="http://www.w3.org/2000/svg">
<rect width="50" height="50" rx="25" fill="#FF8C42"/>
<g clip-path="url(#clip0_121_451)">
<path d="M27.0001 23.81C26.6933 23.7461 26.4035 23.6176 26.1501 23.4332C25.8967 23.2487 25.6854 23.0124 25.5303 22.74C25.3752 22.4676 25.2798 22.1654 25.2505 21.8533C25.2211 21.5413 25.2585 21.2265 25.3601 20.93L25.6001 20.3V16C25.6001 15.7348 25.4948 15.4804 25.3072 15.2929C25.1197 15.1054 24.8653 15 24.6001 15C24.3349 15 24.0806 15.1054 23.893 15.2929C23.7055 15.4804 23.6001 15.7348 23.6001 16V20.43L23.4601 20.36C23.4398 20.4652 23.4026 20.5665 23.3501 20.66C23.2202 20.8899 23.1033 21.1269 23.0001 21.37C22.0606 23.3975 21.6855 25.6408 21.9143 27.8637C22.1431 30.0865 22.9673 32.2064 24.3001 34C24.4145 34.1485 24.4848 34.3262 24.503 34.5127C24.5212 34.6993 24.4867 34.8872 24.4033 35.055C24.3199 35.2229 24.191 35.3639 24.0313 35.462C23.8716 35.5602 23.6876 35.6114 23.5001 35.61C23.3466 35.6085 23.1954 35.5716 23.0584 35.5022C22.9214 35.4328 22.8023 35.3329 22.7101 35.21C21.1571 33.1399 20.1915 30.689 19.9152 28.1158C19.6388 25.5427 20.062 22.9427 21.1401 20.59C21.2701 20.29 21.4101 20.01 21.5501 19.74C17.2001 18.79 14.2601 21.74 14.2601 28C14.1956 30.8057 15.2453 33.5227 17.1795 35.5562C19.1137 37.5897 21.7747 38.774 24.5801 38.85C27.3855 38.774 30.0466 37.5897 31.9808 35.5562C33.9149 33.5227 34.9646 30.8057 34.9001 28C34.9578 26.2462 34.6513 24.4995 34.0001 22.87C32.5117 23.6298 30.8612 24.0176 29.1901 24C28.4559 24.0038 27.7228 23.9402 27.0001 23.81Z" fill="white"/>
<path d="M29.375 22.5304C31.2747 22.5158 33.1211 21.9004 34.6498 20.7723C36.1784 19.6442 37.3109 18.0614 37.885 16.2504C37.9151 16.1572 37.9254 16.0587 37.915 15.9612C37.9047 15.8638 37.8741 15.7696 37.825 15.6848C37.776 15.6 37.7098 15.5264 37.6305 15.4688C37.5513 15.4112 37.4608 15.3708 37.365 15.3504C36.7329 15.222 36.0899 15.155 35.445 15.1504C33.5446 15.1579 31.6961 15.7707 30.1677 16.8999C28.6392 18.0292 27.5104 19.6161 26.945 21.4304C26.9131 21.5235 26.9012 21.6223 26.9101 21.7204C26.919 21.8184 26.9485 21.9135 26.9966 21.9994C27.0447 22.0853 27.1104 22.16 27.1894 22.2188C27.2684 22.2775 27.3589 22.319 27.455 22.3404C28.0874 22.4655 28.7303 22.5291 29.375 22.5304Z" fill="white"/>
</g>
<defs>
<clipPath id="clip0_121_451">
<rect width="24" height="24" fill="white" transform="translate(14 15)"/>
</clipPath>
</defs>
</svg>
